<?xml version="1.0" encoding="UTF-8" standalone="no"?>
<svg
   height="24"
   viewBox="0 96 960 960"
   width="24"
   version="1.1"
   id="svg4"
   sodipodi:docname="accept.svg"
   inkscape:version="1.1.2 (0a00cf5339, 2022-02-04)"
   xmlns:inkscape="http://www.inkscape.org/namespaces/inkscape"
   xmlns:sodipodi="http://sodipodi.sourceforge.net/DTD/sodipodi-0.dtd"
   xmlns="http://www.w3.org/2000/svg"
   xmlns:svg="http://www.w3.org/2000/svg">
  <defs
     id="defs8" />
  <sodipodi:namedview
     id="namedview6"
     pagecolor="#ffffff"
     bordercolor="#000000"
     borderopacity="0.25"
     inkscape:pageshadow="2"
     inkscape:pageopacity="0.0"
     inkscape:pagecheckerboard="0"
     showgrid="false"
     inkscape:zoom="36.375"
     inkscape:cx="12"
     inkscape:cy="12"
     inkscape:window-width="3370"
     inkscape:window-height="1376"
     inkscape:window-x="70"
     inkscape:window-y="27"
     inkscape:window-maximized="1"
     inkscape:current-layer="svg4" />
  <g
     inkscape:groupmode="layer"
     id="layer1"
     inkscape:label="Layer 1"
     style="display:inline">
    <path
       style="fill:#f1c336;fill-rule:evenodd;stroke:#f1c336;stroke-width:0.00151203;stroke-linecap:square;paint-order:markers stroke fill"
       d="M 13.415754,10.968696 C 12.4765,11.907915 11.537246,12.847133 10.597992,13.786351 9.6473364,12.835839 8.6966814,11.885328 7.7460266,10.934815 7.2787329,11.375469 6.8146905,11.844588 6.370436,12.317547 c -0.043737,0.0753 0.1119324,0.130873 0.1391782,0.195546 1.3489993,1.37349 2.7107187,2.734811 4.0821488,4.085865 0.447679,-0.407443 0.87205,-0.860834 1.309721,-1.286767 1.920428,-1.915025 3.836727,-3.834278 5.75482,-5.7516777 -0.447165,-0.4804712 -0.937736,-0.9429712 -1.401525,-1.4165593 -0.635101,0.6019978 -1.252208,1.2474393 -1.88039,1.866143 -0.319545,0.319533 -0.63909,0.639066 -0.958635,0.958599 z"
       id="path1571"
       transform="matrix(40,0,0,40,0,96)" />
    <path
       style="fill:#f1c336;fill-rule:evenodd;stroke:#f1c336;stroke-width:0.00151203;stroke-linecap:square;paint-order:markers stroke fill"
       d="M 11.892612,1.9902277 C 9.5402532,1.9864274 7.2121017,2.890621 5.4418493,4.4317547 4.7706287,5.0490733 4.1296717,5.7100003 3.6416452,6.4852341 2.5802136,8.0803519 1.9906955,9.9834804 1.9835673,11.900761 c -0.042113,2.799403 1.1654221,5.58774 3.2378631,7.47037 1.5526757,1.425019 3.5565399,2.364807 5.6578926,2.58098 1.031173,0.116437 2.082015,0.07073 3.100373,-0.12841 1.756601,-0.356778 3.414273,-1.199125 4.743859,-2.40028 0.705894,-0.64508 1.329462,-1.380572 1.81994,-2.202816 0.930075,-1.50714 1.448864,-3.263156 1.472082,-5.03502 C 22.072433,9.7328426 21.173571,7.2812561 19.562995,5.4331203 17.669049,3.2406807 14.796463,1.9237255 11.892612,1.9902277 Z m 0.128436,2.0294244 c 1.44027,-2.48e-5 2.896387,0.348023 4.122021,1.1200834 0.847864,0.4980011 1.56111,1.1942136 2.187365,1.9452086 0.98037,1.2328877 1.545649,2.7801605 1.630974,4.3483619 0.02625,0.795492 0.01874,1.598914 -0.170915,2.375642 -0.316748,1.49205 -1.097546,2.881252 -2.212676,3.924436 -1.44021,1.471887 -3.505771,2.272987 -5.557305,2.241979 -2.0751924,0.04699 -4.1646519,-0.7702 -5.6175558,-2.261058 C 5.1888355,16.572972 4.3842882,15.01702 4.1221718,13.374242 3.9969405,12.550162 4.0009626,11.705898 4.0855496,10.877634 4.3046678,9.1480124 5.1211772,7.4930755 6.3936294,6.2948795 7.6929776,4.9621438 9.501804,4.1507163 11.356999,4.0422698 c 0.220966,-0.01577 0.442526,-0.02313 0.664049,-0.022618 z"
       id="path1610"
       transform="matrix(40,0,0,40,0,96)" />
  </g>
</svg>
