<?xml version="1.0" encoding="UTF-8" standalone="no"?>
<svg
   height="24"
   viewBox="0 96 960 960"
   width="24"
   version="1.1"
   id="svg4"
   sodipodi:docname="cancel.svg"
   inkscape:version="1.1.2 (0a00cf5339, 2022-02-04)"
   xmlns:inkscape="http://www.inkscape.org/namespaces/inkscape"
   xmlns:sodipodi="http://sodipodi.sourceforge.net/DTD/sodipodi-0.dtd"
   xmlns="http://www.w3.org/2000/svg"
   xmlns:svg="http://www.w3.org/2000/svg">
  <defs
     id="defs8">
    <filter
       style="color-interpolation-filters:sRGB;"
       inkscape:label="Colorize"
       id="filter2788"
       x="0"
       y="0"
       width="1"
       height="1">
      <feComposite
         in2="SourceGraphic"
         operator="arithmetic"
         k1="0"
         k2="1"
         result="composite1"
         id="feComposite2774" />
      <feColorMatrix
         in="composite1"
         values="1"
         type="saturate"
         result="colormatrix1"
         id="feColorMatrix2776" />
      <feFlood
         flood-opacity="1"
         flood-color="rgb(241,195,54)"
         result="flood1"
         id="feFlood2778" />
      <feBlend
         in="flood1"
         in2="colormatrix1"
         mode="multiply"
         result="blend1"
         id="feBlend2780" />
      <feBlend
         in2="blend1"
         mode="screen"
         result="blend2"
         id="feBlend2782" />
      <feColorMatrix
         in="blend2"
         values="1"
         type="saturate"
         result="colormatrix2"
         id="feColorMatrix2784" />
      <feComposite
         in="colormatrix2"
         in2="SourceGraphic"
         operator="in"
         k2="1"
         result="composite2"
         id="feComposite2786" />
    </filter>
  </defs>
  <sodipodi:namedview
     id="namedview6"
     pagecolor="#ffffff"
     bordercolor="#000000"
     borderopacity="0.25"
     inkscape:pageshadow="2"
     inkscape:pageopacity="0.0"
     inkscape:pagecheckerboard="0"
     showgrid="false"
     inkscape:zoom="45.254834"
     inkscape:cx="12.098155"
     inkscape:cy="12.650582"
     inkscape:window-width="3370"
     inkscape:window-height="1376"
     inkscape:window-x="70"
     inkscape:window-y="27"
     inkscape:window-maximized="1"
     inkscape:current-layer="svg4" />
  <g
     inkscape:groupmode="layer"
     id="layer1"
     inkscape:label="Layer 1"
     style="display:inline">
    <path
       style="fill:#f1c336;fill-rule:evenodd;stroke:#f1c336;stroke-width:0.00121534;stroke-linecap:square;paint-order:markers stroke fill"
       d="m 11.402097,21.984684 c -0.04861,-0.0047 -0.212685,-0.01908 -0.364602,-0.03198 C 10.060598,21.869728 9.0109549,21.604557 8.1027817,21.211303 6.1066398,20.34694 4.5401002,18.98486 3.421093,17.140652 3.1336075,16.666854 2.7033734,15.743856 2.5229562,15.213844 1.8524857,13.244201 1.8278975,10.962318 2.4559682,8.9970839 2.8959365,7.6204228 3.6353608,6.3387266 4.6214137,5.2435649 5.0345236,4.7847434 5.6329295,4.2560662 6.1844054,3.8626992 6.9792761,3.2957191 8.0344716,2.7655486 8.9636658,2.4662928 10.911381,1.8390127 13.159984,1.8467393 15.103359,2.4873899 c 0.626118,0.2064054 1.489408,0.6023645 2.04398,0.9374989 1.682481,1.0167415 2.982829,2.437155 3.843704,4.1986062 0.519392,1.0627357 0.819627,2.1023676 0.955297,3.307938 0.04795,0.426076 0.05465,1.614465 0.01143,2.028508 -0.120371,1.153294 -0.374831,2.112982 -0.826121,3.11569 -1.105553,2.456396 -3.07611,4.313973 -5.609444,5.287833 -0.758309,0.291508 -1.564075,0.483215 -2.440732,0.580695 -0.289706,0.03221 -1.470186,0.0607 -1.679378,0.04053 z m 1.496982,-2.03251 c 1.444531,-0.143499 2.721165,-0.633214 3.846942,-1.475681 1.534084,-1.14802 2.598172,-2.720315 3.020241,-4.462703 0.262078,-1.081916 0.302251,-2.369313 0.109247,-3.501006 C 19.540042,8.5457463 18.445641,6.7998992 16.747131,5.5222295 15.662724,4.706506 14.450523,4.2326574 12.982039,4.0504573 12.663408,4.0109237 11.330694,4.0115093 11.004349,4.0513264 9.2041248,4.2709705 7.7329995,4.9707185 6.423516,6.230223 5.408839,7.2061727 4.67014,8.4171903 4.310106,9.6949314 4.2156847,10.030027 4.1123981,10.537982 4.0640707,10.904912 c -0.048155,0.365619 -0.067534,1.441873 -0.033097,1.838074 0.1444087,1.661439 0.6960055,3.035876 1.7292564,4.308865 0.2812111,0.346458 0.898974,0.957637 1.2530922,1.239737 0.3093668,0.24645 0.7296783,0.534178 1.0300177,0.705107 1.4103309,0.802646 3.082324,1.13165 4.855739,0.955479 z"
       id="path3970"
       transform="matrix(40,0,0,40,0,96)" />
    <path
       style="fill:#f1c336;fill-rule:evenodd;stroke:#f1c336;stroke-width:0.00121534;stroke-linecap:square;paint-order:markers stroke fill"
       d="M 7.6951724,16.30199 C 7.2736877,15.88033 7.0379222,15.62868 7.0379222,15.600458 c 0,-0.02885 0.6127353,-0.656778 1.7788158,-1.822925 L 10.595554,11.998616 8.816738,10.219903 C 7.6404925,9.0437256 7.0379222,8.4261552 7.0379222,8.3968064 c 0,-0.060703 1.2984424,-1.3588842 1.3591582,-1.3588842 0.028986,0 0.6539792,0.6099047 1.8228226,1.7788158 l 1.778713,1.778816 1.778917,-1.778816 c 1.166147,-1.1660805 1.794077,-1.7788158 1.822925,-1.7788158 0.06062,0 1.359056,1.2982713 1.359056,1.3588842 0,0.029349 -0.60257,0.6469193 -1.778816,1.8230966 l -1.778816,1.778714 1.800955,1.801055 1.800955,1.801055 -0.679659,0.679394 c -0.436402,0.436232 -0.695411,0.679393 -0.72367,0.679393 -0.02886,0 -0.656666,-0.612618 -1.82293,-1.778816 l -1.778917,-1.778815 -1.778713,1.778815 c -1.1761774,1.176246 -1.7937478,1.778816 -1.8230966,1.778816 -0.028727,0 -0.2762299,-0.231943 -0.701634,-0.657524 z"
       id="path4009"
       transform="matrix(40,0,0,40,0,96)" />
  </g>
</svg>
