<?xml version="1.0" encoding="UTF-8" standalone="no"?>
<svg
   height="24"
   viewBox="0 96 960 960"
   width="24"
   version="1.1"
   id="svg4"
   sodipodi:docname="cloud.svg"
   inkscape:version="1.1.2 (0a00cf5339, 2022-02-04)"
   xmlns:inkscape="http://www.inkscape.org/namespaces/inkscape"
   xmlns:sodipodi="http://sodipodi.sourceforge.net/DTD/sodipodi-0.dtd"
   xmlns="http://www.w3.org/2000/svg"
   xmlns:svg="http://www.w3.org/2000/svg">
  <defs
     id="defs8" />
  <sodipodi:namedview
     id="namedview6"
     pagecolor="#ffffff"
     bordercolor="#000000"
     borderopacity="0.25"
     inkscape:pageshadow="2"
     inkscape:pageopacity="0.0"
     inkscape:pagecheckerboard="0"
     showgrid="false"
     inkscape:zoom="36.375"
     inkscape:cx="12"
     inkscape:cy="12"
     inkscape:window-width="3370"
     inkscape:window-height="1376"
     inkscape:window-x="70"
     inkscape:window-y="27"
     inkscape:window-maximized="1"
     inkscape:current-layer="svg4" />
  <path
     d="M260 896q-91 0-155.5-63T40 679q0-78 47-139t123-78q25-92 100-149t170-57q117 0 198.5 81.5T760 536q69 8 114.5 59.5T920 716q0 75-52.5 127.5T740 896H260Zm0-80h480q42 0 71-29t29-71q0-42-29-71t-71-29h-60v-80q0-83-58.5-141.5T480 336q-83 0-141.5 58.5T280 536h-20q-58 0-99 41t-41 99q0 58 41 99t99 41Zm220-240Z"
     id="path2" />
  <path
     style="fill:#f1c336;fill-rule:evenodd;stroke:#f1c336;stroke-width:0.00151203;stroke-linecap:square;paint-order:markers stroke fill"
     d="M 11.867698,3.9147337 C 10.537497,3.8885401 9.2156445,4.3159147 8.1092146,5.0448098 6.7140324,5.960864 5.6378175,7.3694837 5.1865872,8.982281 5.1534227,9.132337 4.9478521,9.0873435 4.8360632,9.1483357 3.8933479,9.4268107 3.0302958,9.9635401 2.3776464,10.700273 c -0.93647,1.02566 -1.48281368,2.399788 -1.47497444,3.791457 -0.0290567,1.133796 0.29029424,2.279219 0.95339224,3.204519 0.8284364,1.180654 2.1104317,2.045704 3.5346946,2.308902 0.592262,0.124093 1.2016357,0.05441 1.8018949,0.07754 3.9970423,0.01183 7.9944863,0.0058 11.9913023,-4.86e-4 0.835111,-0.160505 1.656451,-0.483288 2.291176,-1.063611 0.91941,-0.781894 1.567265,-1.926997 1.602402,-3.148642 0.02773,-0.659101 0.0082,-1.336382 -0.241723,-1.956641 -0.540877,-1.456763 -1.83047,-2.645424 -3.371661,-2.943149 -0.114575,-0.02467 -0.230338,-0.04319 -0.345862,-0.06273 C 19.075255,9.8260451 18.865111,8.7358997 18.36098,7.7699819 17.704753,6.5053598 16.665605,5.440954 15.42558,4.7415163 14.59745,4.2911604 13.673096,4.0054816 12.73271,3.9305198 12.444738,3.9135094 12.156058,3.9142634 11.867698,3.9147337 Z m 0.132517,2.193299 c 1.24483,-0.017076 2.468139,0.467144 3.363152,1.3352896 0.874022,0.8141763 1.442437,1.9586378 1.506854,3.1613817 0.05739,0.808438 0.01423,1.628831 0.04335,2.438042 0.08426,0.145822 0.304943,0.04426 0.447254,0.07442 0.583727,0.01816 1.176635,-0.04357 1.754242,0.06229 0.852744,0.210018 1.536113,0.942921 1.728146,1.797036 0.04187,0.373923 0.05532,0.760951 -0.02035,1.131175 -0.210831,0.857949 -0.939447,1.546428 -1.796709,1.743727 -0.346112,0.06297 -0.708203,0.01163 -1.060733,0.02868 -3.729386,-0.0038 -7.458882,0.01919 -11.1881982,-0.0053 C 6.2765737,17.863061 5.756549,17.884849 5.2890892,17.675795 4.0843296,17.212831 3.1534241,16.01356 3.1198991,14.708602 3.0525058,13.759276 3.3927729,12.773799 4.0987747,12.122501 4.6309726,11.549014 5.3617908,11.18192 6.1499805,11.136842 c 0.303156,-0.03935 0.6191777,0.0092 0.9135398,-0.0628 0.089134,-0.3392 0.04999,-0.707868 0.136061,-1.052942 C 7.534855,8.2388338 8.9676701,6.7367838 10.711609,6.2691151 11.132353,6.1636776 11.566573,6.1109152 12.000215,6.1080327 Z"
     id="path862"
     transform="matrix(40,0,0,40,0,96)" />
</svg>
