<?xml version="1.0" encoding="UTF-8" standalone="no"?>
<svg
   height="24"
   viewBox="0 96 960 960"
   width="24"
   version="1.1"
   id="svg4"
   sodipodi:docname="import.svg"
   inkscape:version="1.1.2 (0a00cf5339, 2022-02-04)"
   xmlns:inkscape="http://www.inkscape.org/namespaces/inkscape"
   xmlns:sodipodi="http://sodipodi.sourceforge.net/DTD/sodipodi-0.dtd"
   xmlns="http://www.w3.org/2000/svg"
   xmlns:svg="http://www.w3.org/2000/svg">
  <defs
     id="defs8" />
  <sodipodi:namedview
     id="namedview6"
     pagecolor="#ffffff"
     bordercolor="#000000"
     borderopacity="0.25"
     inkscape:pageshadow="2"
     inkscape:pageopacity="0.0"
     inkscape:pagecheckerboard="0"
     showgrid="false"
     inkscape:zoom="36.375"
     inkscape:cx="12"
     inkscape:cy="12"
     inkscape:window-width="3370"
     inkscape:window-height="1376"
     inkscape:window-x="70"
     inkscape:window-y="27"
     inkscape:window-maximized="1"
     inkscape:current-layer="svg4" />
  <g
     inkscape:groupmode="layer"
     id="layer1"
     inkscape:label="Layer 1"
     style="display:inline">
    <path
       style="fill:#f1c336;fill-rule:evenodd;stroke:#f1c336;stroke-width:0.00151203;stroke-linecap:square;paint-order:markers stroke fill"
       d="m 16.559762,1.9862543 c -2.580896,0.010676 -5.162121,-0.00857 -7.7427882,0.028517 -0.4733517,-0.00846 -0.9071095,0.2616997 -1.23407,0.583919 -0.362259,0.3709772 -0.5858942,0.8848414 -0.5550365,1.4080756 -0.026351,3.0721794 -0.00965,6.1446371 -0.012419,9.2169231 0.014807,0.765645 -0.022633,1.535706 0.059348,2.298164 0.1913602,0.726358 0.825526,1.320283 1.566366,1.456347 1.4908557,0.0466 2.9834017,0.01879 4.4749247,0.0273 2.437754,-0.0018 4.875624,-0.0032 7.313305,-0.0064 0.653228,-0.171793 1.227274,-0.642185 1.479811,-1.273948 0.168246,-0.382662 0.08562,-0.813849 0.114446,-1.21832 0.0088,-3.457903 0.01531,-6.9159519 -0.0062,-10.3738097 -0.0073,-0.3054787 0.02248,-0.6264317 -0.135181,-0.9031982 C 21.740008,2.8458536 21.435779,2.551532 21.117429,2.3081508 20.86341,2.1520225 20.586993,2.0151209 20.281089,2.0191688 19.041962,1.9633475 17.79981,1.9934416 16.559762,1.9862543 Z M 14.52921,4.0099871 c 1.829431,0 3.658863,0 5.488294,0 0,3.6588632 0,7.3177259 0,10.9765889 -3.658863,0 -7.317726,0 -10.9765891,0 0,-3.658863 0,-7.3177257 0,-10.9765889 1.8294311,0 3.6588631,0 5.4882951,0 z"
       id="path863"
       transform="matrix(40,0,0,40,0,96)" />
    <path
       style="fill:#f1c336;fill-rule:evenodd;stroke:#f1c336;stroke-width:0.00151203;stroke-linecap:square;paint-order:markers stroke fill"
       d="m 14.522283,5.4810997 c -0.334047,0.00918 -0.679335,-0.00851 -1.006497,0.017128 -0.0091,1.3634915 -0.01822,2.7269832 -0.02733,4.0904746 C 12.965664,9.0835067 12.453715,8.5515485 11.924184,8.0629829 11.457806,8.5432631 10.96477,9.0125931 10.514981,9.499731 c 1.335921,1.330883 2.662164,2.671795 4.008,3.992483 C 14.88184,13.1766 15.215889,12.81129 15.563997,12.475803 16.55495,11.488321 17.543064,10.497911 18.532592,9.5089669 18.0936,9.0277902 17.621895,8.5542122 17.158379,8.087693 17.032758,8.0687271 16.923718,8.2980033 16.805283,8.3723109 16.37983,8.7872913 15.954357,9.2022513 15.528887,9.6172143 c 0,-1.3777922 0,-2.7555841 0,-4.1333762 -0.326495,-0.021061 -0.673224,0.00152 -1.006604,-0.00274 z"
       id="path902"
       transform="matrix(40,0,0,40,0,96)" />
    <path
       style="fill:#f1c336;fill-rule:evenodd;stroke:#f1c336;stroke-width:0.00151203;stroke-linecap:square;paint-order:markers stroke fill"
       d="M 4.9553265,6.8493342 C 4.4498192,6.885565 3.9410819,6.944495 3.4486684,7.0660438 2.6685813,7.3402355 2.0861878,8.1517946 2.1277904,8.984496 c 0.4332406,3.723218 0.8918733,7.44358 1.3657967,11.161841 0.087995,0.818412 0.7399237,1.559549 1.5487084,1.729365 0.4853226,0.07791 0.9709859,-0.05976 1.4548316,-0.09259 3.4676825,-0.417844 6.9352079,-0.839772 10.3963059,-1.309108 0.531043,-0.09576 1.072068,-0.345041 1.396086,-0.791224 0.116719,-0.198323 0.212477,-0.435635 0.195286,-0.667902 -0.265938,-0.05989 -0.553976,-0.02193 -0.827531,-0.038 -1.602434,-0.003 -3.205987,-0.01163 -4.807744,0.0027 -2.433614,0.292875 -4.8652361,0.608959 -7.3003998,0.884941 C 5.4285614,19.862319 5.5024532,19.622282 5.4542512,19.53306 5.0129278,16.013443 4.5702365,12.489925 4.1546929,8.9696091 4.4444518,8.9184069 4.7537534,8.9193076 5.0349012,8.8478845 5.0700159,8.1859749 5.04827,7.5218704 5.0546606,6.8591065 5.0323923,6.834313 4.9853012,6.8571394 4.9553265,6.8493342 Z"
       id="path941"
       transform="matrix(40,0,0,40,0,96)" />
  </g>
</svg>
