<?xml version="1.0" encoding="UTF-8" standalone="no"?>
<svg
   height="48"
   viewBox="0 96 960 960"
   width="48"
   version="1.1"
   id="svg27"
   sodipodi:docname="open_in_browser_FILL0_wght400_GRAD0_opsz48.svg"
   inkscape:version="1.2.2 (732a01da63, 2022-12-09, custom)"
   xmlns:inkscape="http://www.inkscape.org/namespaces/inkscape"
   xmlns:sodipodi="http://sodipodi.sourceforge.net/DTD/sodipodi-0.dtd"
   xmlns="http://www.w3.org/2000/svg"
   xmlns:svg="http://www.w3.org/2000/svg">
  <defs
     id="defs31" />
  <sodipodi:namedview
     id="namedview29"
     pagecolor="#ffffff"
     bordercolor="#000000"
     borderopacity="0.25"
     inkscape:showpageshadow="2"
     inkscape:pageopacity="0.0"
     inkscape:pagecheckerboard="0"
     inkscape:deskcolor="#d1d1d1"
     showgrid="false"
     inkscape:zoom="23.9375"
     inkscape:cx="24"
     inkscape:cy="24"
     inkscape:window-width="3370"
     inkscape:window-height="1369"
     inkscape:window-x="70"
     inkscape:window-y="34"
     inkscape:window-maximized="1"
     inkscape:current-layer="svg27" />
  <g
     inkscape:groupmode="layer"
     id="layer1"
     inkscape:label="Layer 1"
     style="display:inline">
    <path
       style="fill:#f1c336;fill-rule:evenodd;stroke:#f1c336;stroke-width:0.00229765;stroke-linecap:square;paint-order:markers stroke fill"
       d="M 8.4354602,6.006201 C 7.2585337,6.3098759 6.2680627,7.2899104 6.0056299,8.4804178 6.0060108,18.841775 6.0048685,29.203268 6.006201,39.56454 c 0.3023319,1.165598 1.2718497,2.180184 2.471769,2.407066 3.676541,0.05615 7.354188,0.01684 11.031168,0.02276 0.02372,-0.99259 0.03157,-2.014351 0.02195,-3.007017 -3.506147,0 -7.012293,0 -10.5184401,0 0,-8.988958 0,-17.977916 0,-26.966873 9.9915691,0 19.9831371,0 29.9747061,0 0,8.988957 0,17.977915 0,26.966873 -3.506147,0 -7.012293,0 -10.51844,0 -0.0096,0.992669 -0.0018,2.014431 0.02195,3.007017 3.691209,-3.81e-4 7.382553,7.61e-4 11.073678,-5.71e-4 1.12666,-0.297108 2.09803,-1.20022 2.386739,-2.341398 0.100504,-0.420481 0.01456,-0.870617 0.04309,-1.302532 C 41.99399,28.378413 41.995132,18.406824 41.9938,8.4354562 41.690124,7.2585337 40.71009,6.2680627 39.519582,6.0056299 29.158225,6.0060108 18.796732,6.0048685 8.4354602,6.006201 Z"
       id="path207"
       transform="matrix(20,0,0,20,0,96)" />
    <path
       style="fill:#f1c336;fill-rule:evenodd;stroke:#f1c336;stroke-width:0.00229765;stroke-linecap:square;paint-order:markers stroke fill"
       d="m 20.086896,25.872797 c -1.298642,1.308071 -2.624098,2.605036 -3.906005,3.920039 0.730255,0.720661 1.449344,1.468217 2.186439,2.172242 1.372905,-1.372689 2.745811,-2.745377 4.118718,-4.118064 0,4.719402 0,9.438805 0,14.158208 0.999598,0.01673 2.028306,0.01673 3.027904,0 0,-4.719403 0,-9.438806 0,-14.158208 1.379035,1.369316 2.746961,2.765455 4.132915,4.118064 0.72066,-0.730255 1.468216,-1.449343 2.172242,-2.186439 -2.604003,-2.603895 -5.208007,-5.207789 -7.812011,-7.811684 -1.314951,1.281788 -2.612306,2.607454 -3.920202,3.905842 z"
       id="path209"
       transform="matrix(20,0,0,20,0,96)" />
  </g>
</svg>
