<?xml version="1.0" encoding="UTF-8" standalone="no"?>
<svg
   height="24"
   viewBox="0 96 960 960"
   width="24"
   version="1.1"
   id="svg4"
   sodipodi:docname="patient.svg"
   inkscape:version="1.1.2 (0a00cf5339, 2022-02-04)"
   xmlns:inkscape="http://www.inkscape.org/namespaces/inkscape"
   xmlns:sodipodi="http://sodipodi.sourceforge.net/DTD/sodipodi-0.dtd"
   xmlns="http://www.w3.org/2000/svg"
   xmlns:svg="http://www.w3.org/2000/svg">
  <defs
     id="defs8" />
  <sodipodi:namedview
     id="namedview6"
     pagecolor="#ffffff"
     bordercolor="#000000"
     borderopacity="0.25"
     inkscape:pageshadow="2"
     inkscape:pageopacity="0.0"
     inkscape:pagecheckerboard="0"
     showgrid="false"
     inkscape:zoom="36.375"
     inkscape:cx="12"
     inkscape:cy="12"
     inkscape:window-width="3370"
     inkscape:window-height="1376"
     inkscape:window-x="70"
     inkscape:window-y="27"
     inkscape:window-maximized="1"
     inkscape:current-layer="svg4" />
  <g
     inkscape:groupmode="layer"
     id="layer1"
     inkscape:label="Layer 1"
     style="display:inline">
    <path
       style="fill:#f1c336;fill-rule:evenodd;stroke:#f1c336;stroke-width:0.00151203;stroke-linecap:square;paint-order:markers stroke fill"
       d="M 11.93605,3.9937715 C 10.876038,3.9801055 9.8420748,4.4522025 9.1142879,5.2148045 8.3549147,5.9845278 7.9273776,7.0744973 7.9957521,8.1573064 8.00652,9.7276643 9.0998191,11.180244 10.54521,11.745973 c 0.853095,0.34293 1.823334,0.333797 2.698833,0.08157 C 14.496863,11.398739 15.545867,10.337515 15.883,9.0470898 16.062448,8.2762444 16.061772,7.4459656 15.804177,6.6926009 15.318857,5.3007837 14.022578,4.2018175 12.55058,4.0230348 12.346583,4.0008811 12.141209,3.9923023 11.93605,3.9937715 Z m 0.05982,2.0237328 c 0.573494,-0.00733 1.134921,0.2557732 1.500771,0.6985391 0.492953,0.5128448 0.576,1.3038499 0.369529,1.9605666 C 13.671024,9.1911791 13.248518,9.6262994 12.739733,9.841363 12.005189,10.140631 11.088978,9.9515159 10.565024,9.3446628 10.147238,8.9573372 9.9830227,8.3633421 10.036781,7.8076137 10.060043,7.3185157 10.309186,6.854648 10.68052,6.5387672 11.019615,6.1973523 11.521563,6.0241621 11.995866,6.0175043 Z"
       id="path863"
       transform="matrix(40,0,0,40,0,96)" />
    <path
       style="fill:#f1c336;fill-rule:evenodd;stroke:#f1c336;stroke-width:0.00151203;stroke-linecap:square;paint-order:markers stroke fill"
       d="m 11.9157,12.985395 c -2.2515386,0.01577 -4.4954358,0.590182 -6.4831399,1.645726 -0.7328043,0.43683 -1.2576353,1.207083 -1.4054982,2.045533 -0.048204,1.106685 -0.022954,2.215705 -0.039841,3.323292 0.8655392,0.02343 1.7491734,0.0033 2.621671,0.01004 4.4637021,0 8.9274051,0 13.3911081,0 0.02236,-0.831448 0.0055,-1.680637 0.0078,-2.519005 0.0131,-0.513091 -0.02981,-1.038752 -0.252718,-1.508701 -0.300506,-0.694481 -0.87724,-1.253203 -1.571995,-1.54955 -1.846227,-0.904899 -3.887154,-1.409998 -5.94422,-1.444973 -0.107695,-0.0022 -0.215417,-0.0028 -0.323132,-0.0024 z m 0.08371,2.037264 c 1.907856,-0.0018 3.811149,0.475599 5.50086,1.357925 0.241439,0.129255 0.410689,0.377149 0.470138,0.637556 0.0056,0.321667 0.01123,0.643334 0.01687,0.965 -3.991517,0 -7.983033,0 -11.9745495,0 0.01406,-0.34723 -0.00345,-0.702102 0.029979,-1.044634 0.099425,-0.266772 0.2895912,-0.495884 0.5520894,-0.611651 1.6724071,-0.833489 3.5325761,-1.303678 5.4046151,-1.304196 z"
       id="path902"
       transform="matrix(40,0,0,40,0,96)" />
  </g>
</svg>
