<?xml version="1.0" encoding="UTF-8" standalone="no"?>
<svg
   height="24"
   viewBox="0 96 960 960"
   width="24"
   version="1.1"
   id="svg4"
   sodipodi:docname="query.svg"
   inkscape:version="1.1.2 (0a00cf5339, 2022-02-04)"
   xmlns:inkscape="http://www.inkscape.org/namespaces/inkscape"
   xmlns:sodipodi="http://sodipodi.sourceforge.net/DTD/sodipodi-0.dtd"
   xmlns="http://www.w3.org/2000/svg"
   xmlns:svg="http://www.w3.org/2000/svg">
  <defs
     id="defs8" />
  <sodipodi:namedview
     id="namedview6"
     pagecolor="#ffffff"
     bordercolor="#000000"
     borderopacity="0.25"
     inkscape:pageshadow="2"
     inkscape:pageopacity="0.0"
     inkscape:pagecheckerboard="0"
     showgrid="false"
     inkscape:zoom="45.254834"
     inkscape:cx="16.959514"
     inkscape:cy="14.086893"
     inkscape:window-width="3370"
     inkscape:window-height="1376"
     inkscape:window-x="70"
     inkscape:window-y="27"
     inkscape:window-maximized="1"
     inkscape:current-layer="svg4" />
  <path
     d="M80 856v-80h400v80H80Zm0-200v-80h200v80H80Zm0-200v-80h200v80H80Zm744 400L670 702q-24 17-52.5 25.5T560 736q-83 0-141.5-58.5T360 536q0-83 58.5-141.5T560 336q83 0 141.5 58.5T760 536q0 29-8.5 57.5T726 646l154 154-56 56ZM560 656q50 0 85-35t35-85q0-50-35-85t-85-35q-50 0-85 35t-35 85q0 50 35 85t85 35Z"
     id="path2"
     style="fill:#f1c336;stroke:#f1c336;stroke-width:0.055;paint-order:markers stroke fill;stroke-linecap:square;fill-rule:evenodd" />
</svg>
