<?xml version="1.0" encoding="UTF-8" standalone="no"?>
<svg
   height="48"
   viewBox="0 96 960 960"
   width="48"
   version="1.1"
   id="svg2505"
   sodipodi:docname="visibility_FILL0_wght400_GRAD0_opsz48.svg"
   inkscape:version="1.2.2 (732a01da63, 2022-12-09, custom)"
   xmlns:inkscape="http://www.inkscape.org/namespaces/inkscape"
   xmlns:sodipodi="http://sodipodi.sourceforge.net/DTD/sodipodi-0.dtd"
   xmlns="http://www.w3.org/2000/svg"
   xmlns:svg="http://www.w3.org/2000/svg">
  <defs
     id="defs2509" />
  <sodipodi:namedview
     id="namedview2507"
     pagecolor="#ffffff"
     bordercolor="#000000"
     borderopacity="0.25"
     inkscape:showpageshadow="2"
     inkscape:pageopacity="0.0"
     inkscape:pagecheckerboard="0"
     inkscape:deskcolor="#d1d1d1"
     showgrid="false"
     inkscape:zoom="23.9375"
     inkscape:cx="24"
     inkscape:cy="24"
     inkscape:window-width="3370"
     inkscape:window-height="1369"
     inkscape:window-x="70"
     inkscape:window-y="34"
     inkscape:window-maximized="1"
     inkscape:current-layer="svg2505" />
  <g
     inkscape:groupmode="layer"
     id="layer1"
     inkscape:label="Layer 1"
     style="display:inline">
    <path
       style="fill:#f1c336;fill-rule:evenodd;stroke:#f1c336;stroke-width:0.00229765;stroke-linecap:square;paint-order:markers stroke fill"
       d="M 23.641156,8.0119125 C 21.071366,7.9874265 18.508325,8.4744686 16.095027,9.3458092 12.512371,10.657797 9.3147852,12.917408 6.7096932,15.687745 4.732157,17.833506 3.1298604,20.323805 1.97797,23.002856 c 2.0109184,4.687641 5.4352498,8.770936 9.75933,11.488633 2.723729,1.723249 5.806769,2.895008 9.00963,3.305156 1.118278,0.16465 2.248303,0.232996 3.378233,0.189811 1.231191,-0.01346 2.466567,-0.04369 3.680745,-0.268774 3.794239,-0.582281 7.384197,-2.235353 10.399994,-4.593683 2.881135,-2.223787 5.268184,-5.077239 6.947005,-8.306522 0.313846,-0.596857 0.603617,-1.208073 0.869451,-1.826534 C 44.581393,19.664399 42.461863,16.625736 39.770025,14.191096 36.743881,11.424915 33.033178,9.3562909 29.005385,8.5064458 27.37711,8.1545659 25.711825,7.9727334 24.045121,8.0109141 c -0.134655,-7.83e-5 -0.269311,7.436e-4 -0.403965,9.984e-4 z m 0.664653,3.0303525 c 4.69426,-0.02578 9.308539,1.790812 12.899893,4.778527 2.37404,1.943216 4.27511,4.42989 5.630949,7.176678 -1.075287,2.164553 -2.4588,4.190722 -4.206632,5.869261 -1.639414,1.667121 -3.588157,3.01912 -5.67695,4.061992 -3.068264,1.520562 -6.529898,2.180435 -9.94426,2.025521 C 18.854847,34.7965 14.794269,33.264856 11.499847,30.742182 10.143975,29.71395 8.9188524,28.513701 7.8239758,27.213153 6.7812808,25.904929 5.8585606,24.496103 5.1247552,22.991106 c 1.0898474,-2.144521 2.4655065,-4.163927 4.2115439,-5.828774 1.7049779,-1.738465 3.7440499,-3.136026 5.9328749,-4.194398 2.805201,-1.34398 5.927528,-2.007183 9.036635,-1.925669 z"
       id="path2685"
       transform="matrix(20,0,0,20,0,96)" />
    <path
       style="fill:#f1c336;fill-rule:evenodd;stroke:#f1c336;stroke-width:0.00229765;stroke-linecap:square;paint-order:markers stroke fill"
       d="m 23.845708,14.48564 c -2.031685,0.0024 -4.038798,0.790053 -5.539083,2.158045 -1.429113,1.270977 -2.434484,3.025634 -2.71235,4.925732 -0.415162,2.524492 0.293537,5.257398 2.064749,7.135299 1.608105,1.812372 4.023454,2.900356 6.454298,2.801633 1.959605,0.02239 3.908248,-0.697707 5.386188,-1.983177 1.554842,-1.312136 2.653519,-3.178981 2.922406,-5.206755 0.3278,-2.209616 -0.166673,-4.56773 -1.533127,-6.358437 -1.401077,-1.907547 -3.607962,-3.239106 -5.983269,-3.428898 -0.352093,-0.03433 -0.706109,-0.04847 -1.059812,-0.04344 z m 0.17518,2.951452 c 1.351023,-0.04145 2.694124,0.469423 3.690693,1.379641 1.201977,1.06907 1.932802,2.669805 1.850868,4.285581 0.02567,1.437337 -0.579791,2.863896 -1.629728,3.845343 -0.95899,0.999236 -2.313682,1.603933 -3.702641,1.611977 -1.611973,0.121849 -3.243557,-0.559516 -4.321579,-1.760774 -0.992611,-1.036355 -1.535049,-2.47667 -1.473204,-3.910805 -0.02566,-1.497112 0.646418,-2.970716 1.757931,-3.966839 1.007661,-0.990785 2.419176,-1.5256 3.82766,-1.484124 z"
       id="path2687"
       transform="matrix(20,0,0,20,0,96)" />
  </g>
</svg>
