<?xml version="1.0" encoding="UTF-8" standalone="no"?>
<svg
   height="24"
   viewBox="0 96 960 960"
   width="24"
   version="1.1"
   id="svg4"
   sodipodi:docname="warning.svg"
   inkscape:version="1.1.2 (0a00cf5339, 2022-02-04)"
   xmlns:inkscape="http://www.inkscape.org/namespaces/inkscape"
   xmlns:sodipodi="http://sodipodi.sourceforge.net/DTD/sodipodi-0.dtd"
   xmlns="http://www.w3.org/2000/svg"
   xmlns:svg="http://www.w3.org/2000/svg">
  <defs
     id="defs8" />
  <sodipodi:namedview
     id="namedview6"
     pagecolor="#ffffff"
     bordercolor="#000000"
     borderopacity="0.25"
     inkscape:pageshadow="2"
     inkscape:pageopacity="0.0"
     inkscape:pagecheckerboard="0"
     showgrid="false"
     inkscape:zoom="36.375"
     inkscape:cx="12"
     inkscape:cy="12"
     inkscape:window-width="3370"
     inkscape:window-height="1376"
     inkscape:window-x="70"
     inkscape:window-y="27"
     inkscape:window-maximized="1"
     inkscape:current-layer="svg4" />
  <g
     inkscape:groupmode="layer"
     id="layer1"
     inkscape:label="Layer 1"
     style="display:inline">
    <path
       style="fill:#f1c336;fill-rule:evenodd;stroke:#f1c336;stroke-width:0.00151203;stroke-linecap:square;paint-order:markers stroke fill"
       d="M 11.98271,2.0289412 C 8.4913886,8.0156462 5.0225927,14.015565 1.5547083,20.015912 c -0.1869333,0.326083 -0.376849,0.65044 -0.56013141,0.978558 0.12930221,0.04496 0.30854441,0.0028 0.45317431,0.01964 7.0815519,0.01816 14.1631908,0.01921 21.2447388,-8.85e-4 0.09914,-0.01431 0.23001,0.02457 0.312933,-0.01876 C 19.820689,15.455863 16.609243,9.9323326 13.403622,4.4056928 12.938907,3.608671 12.478719,2.8089047 12.00843,2.0151954 h -0.01686 z m 0.02765,4.0417202 c 2.510066,4.2960316 5.011095,8.5973916 7.506121,12.9021696 -4.82378,-0.0055 -9.6476505,0.01265 -14.4713698,-0.01346 -0.1814526,-0.0045 -0.3636673,-6.37e-4 -0.5444698,-0.01806 C 7.0000993,14.64519 9.4864671,10.341394 11.999782,6.0533711 Z"
       id="path863"
       transform="matrix(40,0,0,40,0,96)" />
    <path
       style="fill:#f1c336;fill-rule:evenodd;stroke:#f1c336;stroke-width:0.00151203;stroke-linecap:square;paint-order:markers stroke fill"
       d="m 10.972831,9.9931271 c 0,1.6678119 0,3.3356239 0,5.0034369 0.673174,0.02331 1.364281,0.0033 2.044351,0.01 0.02331,-0.874779 0.0033,-1.767489 0.01,-2.649163 -0.0067,-0.790035 0.01332,-1.591107 -0.01,-2.374248 -0.680012,0.00664 -1.371259,-0.013291 -2.044351,0.00999 z"
       id="path902"
       transform="matrix(40,0,0,40,0,96)" />
    <path
       style="fill:#f1c336;fill-rule:evenodd;stroke:#f1c336;stroke-width:0.00151203;stroke-linecap:square;paint-order:markers stroke fill"
       d="m 11.978522,15.987865 c -0.482041,-0.0034 -0.935698,0.376444 -0.981744,0.86351 -0.08945,0.540725 0.326279,1.121187 0.886974,1.148518 0.360281,0.05023 0.725036,-0.110888 0.939326,-0.402707 0.377541,-0.486795 0.170561,-1.295886 -0.406895,-1.525075 -0.13749,-0.05949 -0.288011,-0.08754 -0.437661,-0.08425 z"
       id="path941"
       transform="matrix(40,0,0,40,0,96)" />
  </g>
</svg>
